<?xml version="1.0" encoding="utf-8"?>
<!-- Generator: Adobe Illustrator 23.0.1, SVG Export Plug-In . SVG Version: 6.00 Build 0)  -->
<svg version="1.1" id="Layer_1" xmlns="http://www.w3.org/2000/svg" xmlns:xlink="http://www.w3.org/1999/xlink" x="0px" y="0px"
	 viewBox="0 0 86.13 98.42" xml:space="preserve">
<style type="text/css">
	.st0{fill:#8A9497;}
</style>
<path class="st0" d="M52.12,41.29c-2.81,0-5.03,2.47-5.03,5.46c0,3,2.27,5.46,5.03,5.46c2.8,0,5.02-2.47,5.02-5.46
	C57.14,43.76,54.92,41.29,52.12,41.29 M34.15,41.29c-2.8,0-5.02,2.47-5.02,5.46c0,3,2.26,5.46,5.02,5.46c2.8,0,5.02-2.47,5.02-5.46
	C39.23,43.76,36.96,41.29,34.15,41.29"/>
<path class="st0" d="M57.03,64.27c0,0-1.77-2.11-3.25-3.99c6.45-1.82,8.91-5.86,8.91-5.86c-2.01,1.33-3.93,2.27-5.66,2.91
	c-2.46,1.03-4.82,1.72-7.14,2.11c-4.72,0.89-9.05,0.64-12.74-0.04c-2.8-0.54-5.21-1.33-7.23-2.12c-1.13-0.44-2.36-0.98-3.59-1.67
	c-0.15-0.1-0.3-0.14-0.44-0.25c-0.1-0.04-0.15-0.1-0.2-0.14c-0.89-0.49-1.38-0.84-1.38-0.84s2.36,3.93,8.61,5.8
	c-1.48,1.88-3.3,4.08-3.3,4.08c-10.87-0.34-15.01-7.48-15.01-7.48c0-15.85,7.09-28.69,7.09-28.69c7.08-5.32,13.83-5.17,13.83-5.17
	l0.49,0.59c-8.85,2.56-12.94,6.45-12.94,6.45s1.08-0.59,2.9-1.42c5.27-2.31,9.45-2.95,11.17-3.11c0.29-0.04,0.54-0.1,0.84-0.1
	c3-0.39,6.4-0.49,9.94-0.1c4.68,0.54,9.7,1.92,14.82,4.73c0,0-3.89-3.69-12.25-6.25l0.69-0.79c0,0,6.75-0.15,13.83,5.17
	c0,0,7.09,12.84,7.09,28.69C72.1,56.79,67.92,63.93,57.03,64.27 M76.03,0H10.09C4.53,0,0,4.53,0,10.14v66.54
	c0,5.61,4.53,10.14,10.09,10.14H65.9l-2.61-9.1l6.3,5.86l5.95,5.52l10.58,9.34V10.14C86.13,4.53,81.6,0,76.03,0"/>
</svg>
