<?xml version="1.0" encoding="utf-8"?>
<!-- Generator: Adobe Illustrator 23.0.1, SVG Export Plug-In . SVG Version: 6.00 Build 0)  -->
<svg version="1.1" id="Layer_1" xmlns="http://www.w3.org/2000/svg" xmlns:xlink="http://www.w3.org/1999/xlink" x="0px" y="0px"
	 viewBox="0 0 86.1 98.4" xml:space="preserve">
<style type="text/css">
	.st0{fill:#7289DA;}
	.st1{fill:#FFFFFF;}
</style>
<path class="st0" d="M76,0H10.1C4.5,0,0,4.5,0,10.1v66.5c0,5.6,4.5,10.1,10.1,10.1h55.8l-2.6-9.1l6.3,5.9l5.9,5.5l10.6,9.3V10.1
	C86.1,4.5,81.6,0,76,0z"/>
<path class="st1" d="M53.8,60.3c1.5,1.9,3.3,4,3.3,4c10.9-0.3,15.1-7.5,15.1-7.5c0-15.8-7.1-28.7-7.1-28.7
	c-7.1-5.3-13.8-5.2-13.8-5.2l-0.7,0.8c8.4,2.6,12.3,6.3,12.3,6.3c-5.1-2.8-10.1-4.2-14.8-4.7c-3.5-0.4-6.9-0.3-9.9,0.1
	c-0.3,0-0.5,0.1-0.8,0.1c-1.7,0.2-5.9,0.8-11.2,3.1c-1.8,0.8-2.9,1.4-2.9,1.4s4.1-3.9,12.9-6.5l-0.5-0.6c0,0-6.8-0.2-13.8,5.2
	c0,0-7.1,12.8-7.1,28.7c0,0,4.1,7.1,15,7.5c0,0,1.8-2.2,3.3-4.1c-6.3-1.9-8.6-5.8-8.6-5.8s0.5,0.3,1.4,0.8c0,0,0.1,0.1,0.2,0.1
	c0.1,0.1,0.3,0.2,0.4,0.3c1.2,0.7,2.5,1.2,3.6,1.7c2,0.8,4.4,1.6,7.2,2.1c3.7,0.7,8,0.9,12.7,0c2.3-0.4,4.7-1.1,7.1-2.1
	c1.7-0.6,3.6-1.6,5.7-2.9C62.7,54.4,60.2,58.5,53.8,60.3z M34.2,52.2c-2.8,0-5-2.5-5-5.5c0-3,2.2-5.5,5-5.5c2.8,0,5.1,2.5,5,5.5
	C39.2,49.7,37,52.2,34.2,52.2z M52.1,52.2c-2.8,0-5-2.5-5-5.5c0-3,2.2-5.5,5-5.5c2.8,0,5,2.5,5,5.5S54.9,52.2,52.1,52.2z"/>
</svg>
