<?xml version="1.0" encoding="utf-8"?>
<!-- Generator: Adobe Illustrator 23.0.1, SVG Export Plug-In . SVG Version: 6.00 Build 0)  -->
<svg version="1.1" id="Layer_1" xmlns="http://www.w3.org/2000/svg" xmlns:xlink="http://www.w3.org/1999/xlink" x="0px" y="0px"
	 viewBox="0 0 9.79 9.66" style="enable-background:new 0 0 9.79 9.66;" xml:space="preserve">
<style type="text/css">
	.st0{fill:#FFFFFF;}
</style>
<g>
	<path class="st0" d="M8.82,4.7c-0.2,0-0.37,0.16-0.37,0.37v3.86H0.73V1.21h3.86c0.2,0,0.37-0.16,0.37-0.37S4.79,0.48,4.59,0.48
		H0.37C0.16,0.48,0,0.64,0,0.84V9.3c0,0.2,0.16,0.37,0.37,0.37h8.45c0.2,0,0.37-0.16,0.37-0.37V5.07C9.19,4.87,9.02,4.7,8.82,4.7z"
		/>
	<rect x="3.3" y="2.16" transform="matrix(0.7071 -0.7071 0.7071 0.7071 -0.1945 5.6524)" class="st0" width="6.85" height="1.81"/>
	<polygon class="st0" points="2.94,6.1 2.65,7.14 3.68,6.85 4.72,6.56 3.97,5.82 3.23,5.07 	"/>
</g>
</svg>
