<?xml version="1.0" encoding="utf-8"?>
<!-- Generator: Adobe Illustrator 23.0.1, SVG Export Plug-In . SVG Version: 6.00 Build 0)  -->
<svg version="1.1" id="Layer_1" xmlns="http://www.w3.org/2000/svg" xmlns:xlink="http://www.w3.org/1999/xlink" x="0px" y="0px"
	 viewBox="0 0 7.82 8.08" xml:space="preserve">
<style type="text/css">
	.st0{fill:#D9E9EE;}
</style>
<path class="st0" d="M7.82,7.39L5.94,5.51c0.49-0.58,0.79-1.32,0.79-2.14C6.73,1.51,5.22,0,3.36,0C1.51,0,0,1.51,0,3.36
	c0,1.86,1.51,3.37,3.36,3.37c0.68,0,1.32-0.21,1.85-0.56l1.91,1.91L7.82,7.39z M0.98,3.36c0-1.31,1.07-2.38,2.38-2.38
	c1.31,0,2.38,1.07,2.38,2.38c0,1.31-1.07,2.38-2.38,2.38C2.05,5.75,0.98,4.68,0.98,3.36z"/>
</svg>
