<?xml version="1.0" encoding="utf-8"?>
<!-- Generator: Adobe Illustrator 23.0.1, SVG Export Plug-In . SVG Version: 6.00 Build 0)  -->
<svg version="1.1" id="Layer_1" xmlns="http://www.w3.org/2000/svg" xmlns:xlink="http://www.w3.org/1999/xlink" x="0px" y="0px"
	 viewBox="0 0 143.49 116.6" xml:space="preserve">
<style type="text/css">
	.st0{fill:#1DA1F2;}
</style>
<path class="st0" d="M99.34,0C83.08,0,69.91,13.18,69.91,29.43c0,2.32,0.25,4.56,0.76,6.72C46.21,34.92,24.51,23.19,9.99,5.38
	c-2.54,4.35-3.98,9.4-3.98,14.8c0,10.21,5.2,19.23,13.09,24.51c-4.83-0.16-9.37-1.48-13.34-3.68c0,0.12,0,0.24,0,0.37
	c0,14.25,10.15,26.15,23.62,28.86c-2.48,0.67-5.07,1.03-7.76,1.03c-1.9,0-3.74-0.19-5.55-0.53c3.75,11.69,14.62,20.2,27.51,20.45
	c-10.08,7.9-22.77,12.6-36.56,12.6c-2.37,0-4.72-0.14-7.03-0.41c13.04,8.35,28.5,13.22,45.13,13.22c54.14,0,83.75-44.85,83.75-83.75
	c0-1.27-0.03-2.55-0.09-3.81c5.75-4.14,10.74-9.33,14.69-15.24c-5.28,2.34-10.95,3.92-16.9,4.63c6.08-3.64,10.74-9.41,12.94-16.28
	c-5.7,3.37-11.99,5.82-18.7,7.14C115.46,3.58,107.81,0,99.34,0"/>
</svg>
