<?xml version="1.0" encoding="utf-8"?>
<!-- Generator: Adobe Illustrator 23.0.1, SVG Export Plug-In . SVG Version: 6.00 Build 0)  -->
<svg version="1.1" id="Layer_1" xmlns="http://www.w3.org/2000/svg" xmlns:xlink="http://www.w3.org/1999/xlink" x="0px" y="0px"
	 viewBox="0 0 105.8 74.5" xml:space="preserve">
<style type="text/css">
	.st0{fill:#151515F0;}
	.st1{fill:#FFFFFF;}
</style>
<path class="st0" d="M69.7,37.3L42.1,53V21.5L69.7,37.3z M105.8,37.3c0,0,0-17.3-2.2-25.6c-1.2-4.6-4.8-8.2-9.4-9.4
	C86,0,52.9,0,52.9,0S19.8,0,11.6,2.2C7,3.5,3.4,7.1,2.2,11.6C0,19.9,0,37.3,0,37.3s0,17.3,2.2,25.6c1.2,4.6,4.8,8.2,9.4,9.4
	c8.3,2.2,41.3,2.2,41.3,2.2s33.1,0,41.3-2.2c4.5-1.2,8.1-4.8,9.4-9.4C105.8,54.6,105.8,37.3,105.8,37.3"/>
	<polygon class="st1" points="69.7,37.3 42.1,21.5 42.1,53 "/>
</svg>
